HIERARCHY
ROOT Hips
{
 OFFSET 0.000000 0.000000 0.000000
 CHANNELS 6 Xposition Yposition Zposition Yrotation Xrotation Zrotation
 JOINT Chest
 {
  OFFSET 0.000000 9.585900 0.002600
  CHANNELS 3 Yrotation Xrotation Zrotation
  JOINT Chest2
  {
   OFFSET 0.000000 9.601200 -0.005300
   CHANNELS 3 Yrotation Xrotation Zrotation
   JOINT Chest3
   {
    OFFSET 0.000000 9.561800 0.000000
    CHANNELS 3 Yrotation Xrotation Zrotation
    JOINT Chest4
    {
     OFFSET 0.000000 9.552100 0.000000
     CHANNELS 3 Yrotation Xrotation Zrotation
     JOINT Neck
     {
      OFFSET 0.000000 14.453000 0.000000
      CHANNELS 3 Yrotation Xrotation Zrotation
      JOINT Head
      {
       OFFSET 0.000000 8.936500 -0.011300
       CHANNELS 3 Yrotation Xrotation Zrotation
       End Site
       {
        OFFSET 0.000000 17.073600 -0.006000
       }
      }
     }
     JOINT RightCollar
     {
      OFFSET -2.921100 9.558500 0.000000
      CHANNELS 3 Yrotation Xrotation Zrotation
      JOINT RightShoulder
      {
       OFFSET -13.519700 0.000000 0.000000
       CHANNELS 3 Yrotation Xrotation Zrotation
       JOINT RightElbow
       {
        OFFSET 0.000000 -29.696600 0.000000
        CHANNELS 3 Yrotation Xrotation Zrotation
        JOINT RightWrist
        {
         OFFSET 0.000000 -24.004700 0.000000
         CHANNELS 3 Yrotation Xrotation Zrotation
         End Site
         {
          OFFSET 0.000000 -17.728500 0.000000
         }
        }
       }
      }
     }
     JOINT LeftCollar
     {
      OFFSET 2.921100 9.558500 0.000000
      CHANNELS 3 Yrotation Xrotation Zrotation
      JOINT LeftShoulder
      {
       OFFSET 13.519700 0.000000 0.000000
       CHANNELS 3 Yrotation Xrotation Zrotation
       JOINT LeftElbow
       {
        OFFSET 0.000000 -29.696600 0.000000
        CHANNELS 3 Yrotation Xrotation Zrotation
        JOINT LeftWrist
        {
         OFFSET 0.000000 -24.004700 0.000000
         CHANNELS 3 Yrotation Xrotation Zrotation
         End Site
         {
          OFFSET 0.000000 -17.728500 0.000000
         }
        }
       }
      }
     }
    }
   }
  }
 }
 JOINT RightHip
 {
  OFFSET -7.771700 -0.012900 -0.001300
  CHANNELS 3 Yrotation Xrotation Zrotation
  JOINT RightKnee
  {
   OFFSET 0.000000 -40.869800 0.001200
   CHANNELS 3 Yrotation Xrotation Zrotation
   JOINT RightAnkle
   {
    OFFSET 0.000000 -39.717900 0.002100
    CHANNELS 3 Yrotation Xrotation Zrotation
    JOINT RightToe
    {
     OFFSET 0.000000 -4.965400 11.033500
     CHANNELS 3 Yrotation Xrotation Zrotation
     End Site
     {
      OFFSET 0.000000 -1.423100 5.872300
     }
    }
   }
  }
 }
 JOINT LeftHip
 {
  OFFSET 7.771700 -0.012900 -0.001300
  CHANNELS 3 Yrotation Xrotation Zrotation
  JOINT LeftKnee
  {
   OFFSET 0.000000 -40.869800 0.001200
   CHANNELS 3 Yrotation Xrotation Zrotation
   JOINT LeftAnkle
   {
    OFFSET 0.000000 -39.717900 0.002100
    CHANNELS 3 Yrotation Xrotation Zrotation
    JOINT LeftToe
    {
     OFFSET 0.000000 -4.965400 11.033500
     CHANNELS 3 Yrotation Xrotation Zrotation
     End Site
     {
      OFFSET 0.000000 -1.423100 5.872300
     }
    }
   }
  }
 }
}
MOTION
Frames: 12
Frame Time: 0.008333
0.000000 85.388000 0.000000 0.000000 -5.767877 0.000000 0.000000 11.653817 0.000000 0.000000 -5.885947 0.000000 0.000000 -0.000000 0.000000 0.000000 -0.000000 0.000000 0.000000 12.528835 0.000000 0.000000 0.711642 0.000000 0.000000 -0.000000 0.000000 0.000000 0.000000 -90.000000 0.000000 -2.309062 0.000000 0.000000 2.309062 0.000000 0.000000 -0.000000 0.000000 0.000000 -0.000000 90.000000 0.000000 -2.309062 0.000000 0.000000 2.309062 0.000000 0.000000 8.520406 0.000000 0.000000 1.905762 0.000000 -0.000000 -4.658285 0.000000 0.000000 -0.000000 0.000000 0.000000 8.520406 0.000000 0.000000 1.905762 0.000000 -0.000000 -4.658285 0.000000 0.000000 -0.000000 0.000000
-122.943170 61.937607 19.634375 176.042578 -52.377845 -0.816153 5.050837 26.101763 1.785707 0.694360 4.328044 0.261985 1.124446 6.898157 0.431827 3.762695 21.256197 1.878056 6.219082 19.969529 2.658938 10.527994 1.255015 3.002094 4.231378 8.527730 6.262465 -2.434679 -11.572431 -14.223067 -132.115941 -67.010443 160.744416 24.781275 19.319436 26.467668 -12.682466 3.753032 0.401756 -10.859498 -35.375742 34.908782 -59.597359 -69.336152 72.134425 -1.744295 -3.349536 -14.195051 4.155084 -14.352632 -5.627943 -2.779667 58.089531 -7.007676 0.159166 -5.652734 10.170125 0.271681 -0.732230 0.114199 -4.115967 -11.622028 2.917522 29.872052 75.103181 31.581675 0.737688 -11.002712 -5.318241 0.323970 0.831886 0.152775
-122.945075 61.940902 19.639087 176.016046 -52.401312 -0.784683 5.071593 26.134422 1.763285 0.700830 4.346865 0.254060 1.118078 6.875411 0.453605 3.769957 21.269029 1.870298 6.228965 19.975209 2.681951 10.571606 1.284100 3.090158 4.209228 8.579058 6.265320 -2.433538 -11.617453 -14.210930 -132.139812 -67.013260 160.769315 24.780178 19.323379 26.479795 -12.694883 3.851602 0.387311 -10.836577 -35.347060 34.990306 -58.255717 -68.789805 71.028887 -1.793869 -3.404757 -14.062369 4.161704 -14.329046 -5.637001 -2.766737 58.082452 -7.001703 0.154249 -5.651481 10.168509 0.277710 -0.728775 0.114476 -4.102003 -11.590453 2.895536 29.908076 75.075450 31.617140 0.739704 -10.995908 -5.322168 0.326486 0.832745 0.147317
-122.946687 61.943620 19.645777 176.009294 -52.416900 -0.771820 5.073711 26.152387 1.754121 0.704363 4.365096 0.240474 1.123868 6.883498 0.453680 3.786593 21.323005 1.836455 6.244227 19.911215 2.741857 10.626605 1.297465 3.178841 4.192279 8.528784 6.309147 -2.487962 -11.584833 -14.205976 -132.192130 -67.024653 160.834610 24.780796 19.335535 26.506239 -12.707148 3.896803 0.424996 -10.884493 -35.272659 35.118834 -56.920659 -68.259002 69.991467 -1.879992 -3.418059 -13.969493 4.154416 -14.313807 -5.641754 -2.750898 58.076598 -6.996945 0.151551 -5.650662 10.168199 0.280370 -0.726584 0.115079 -4.099208 -11.568919 2.881572 29.916317 75.052889 31.626312 0.737845 -10.992087 -5.332556 0.325148 0.840186 0.151976
-122.946825 61.944961 19.654933 176.000021 -52.417446 -0.767409 5.083564 26.163792 1.742646 0.705201 4.364886 0.247805 1.130152 6.904653 0.441113 3.799142 21.356341 1.818088 6.310544 19.934795 2.820046 10.652492 1.225226 3.242327 4.177471 8.497993 6.338711 -2.547459 -11.545931 -14.203526 -132.247907 -67.040151 160.904038 24.780134 19.348650 26.530600 -12.717873 3.955083 0.442060 -10.987649 -35.199380 35.277386 -55.577996 -67.709514 68.980026 -2.012459 -3.391167 -13.924508 4.141489 -14.313181 -5.637261 -2.732243 58.060738 -6.985253 0.142149 -5.645133 10.160057 0.283698 -0.723231 0.117125 -4.095010 -11.565908 2.883301 29.923039 75.032758 31.632654 0.733097 -10.981268 -5.337127 0.321275 0.842465 0.153968
-122.947702 61.948613 19.663237 175.944659 -52.430160 -0.722662 5.118437 26.191961 1.729203 0.707376 4.361456 0.253558 1.135876 6.930799 0.429102 3.806984 21.374812 1.804286 6.354420 19.914263 2.873362 10.716620 1.185162 3.324894 4.124682 8.576541 6.319428 -2.551053 -11.609416 -14.165245 -132.288945 -67.056125 160.952025 24.777868 19.354134 26.550324 -12.729233 4.019773 0.446401 -11.113233 -35.115742 35.458508 -54.290607 -67.149031 68.053268 -2.183052 -3.341346 -13.926732 4.160220 -14.303245 -5.638867 -2.716343 58.047044 -6.973170 0.142431 -5.636458 10.151869 0.288019 -0.733546 0.122208 -4.065420 -11.543025 2.874182 29.911691 75.008286 31.619023 0.746905 -10.970089 -5.336675 0.308728 0.843288 0.147233
-122.951943 61.950613 19.673209 175.924900 -52.424059 -0.688125 5.118782 26.205725 1.688358 0.710933 4.370141 0.251225 1.141370 6.943799 0.425626 3.817495 21.394558 1.792165 6.405416 19.885137 2.928094 10.793375 1.129150 3.407381 4.082135 8.615857 6.303047 -2.536081 -11.670615 -14.124614 -132.294241 -67.113411 160.936604 24.778910 19.358632 26.570427 -12.738743 4.081309 0.450297 -11.239601 -35.036801 35.650719 -53.100075 -66.573318 67.224802 -2.375727 -3.288230 -13.961520 4.164338 -14.309634 -5.658303 -2.695662 58.035315 -6.958790 0.125131 -5.632484 10.143526 0.302585 -0.726650 0.127464 -4.051831 -11.539280 2.851329 29.852217 74.971200 31.560356 0.739272 -10.953071 -5.343847 0.315612 0.851920 0.151932
-122.953150 61.956489 19.680827 175.863812 -52.440775 -0.639800 5.155245 26.246332 1.675021 0.716137 4.412232 0.230350 1.146200 6.922183 0.438431 3.827497 21.411415 1.776559 6.461092 19.847955 2.983405 10.878493 1.058195 3.489040 4.056255 8.613390 6.301125 -2.584309 -11.633384 -14.113630 -132.351426 -67.111302 161.008869 24.768826 19.305161 26.579389 -12.745904 4.139859 0.453687 -11.353668 -34.972842 35.846867 -52.048809 -65.973772 66.513817 -2.567453 -3.249273 -14.001204 4.189286 -14.293151 -5.655113 -2.679745 58.021129 -6.948869 0.112762 -5.628184 10.140282 0.313339 -0.720684 0.127626 -4.023577 -11.503691 2.838448 29.853543 74.940847 31.555079 0.761893 -10.965087 -5.341441 0.294254 0.872547 0.140972
-122.955395 61.960384 19.689954 175.844523 -52.435851 -0.621433 5.167082 26.279363 1.649208 0.719477 4.400157 0.239404 1.149730 6.942502 0.428969 3.835656 21.411386 1.771821 6.518977 19.820910 3.030806 10.969097 0.973485 3.567868 4.048283 8.584932 6.313107 -2.650850 -11.549423 -14.127687 -132.419352 -67.107477 161.091227 24.758480 19.250750 26.584952 -12.750859 4.207744 0.443681 -11.441371 -34.931282 36.039965 -51.161550 -65.350182 65.927109 -2.741728 -3.239529 -14.014397 4.191283 -14.298154 -5.658167 -2.675170 58.007379 -6.945116 0.106583 -5.618854 10.128739 0.324026 -0.725383 0.135290 -4.016606 -11.501264 2.829562 29.838910 74.916592 31.536814 0.767690 -10.951790 -5.341774 0.284944 0.873004 0.134992
-122.959192 61.962482 19.700110 175.839371 -52.411222 -0.608134 5.165761 26.269375 1.629563 0.723555 4.426421 0.228814 1.160444 7.002548 0.403940 3.839776 21.324004 1.803561 6.578065 19.822759 3.061952 11.063422 0.875790 3.641106 4.012059 8.653597 6.272151 -2.678999 -11.541328 -14.101963 -132.470960 -67.122967 161.147760 24.760715 19.256600 26.590973 -12.752211 4.294012 0.410605 -11.494080 -34.910751 36.223522 -50.435486 -64.721683 65.456655 -2.900489 -3.267612 -13.980206 4.175536 -14.319477 -5.674347 -2.642657 57.985105 -6.911581 0.090362 -5.613702 10.103045 0.343767 -0.719583 0.147405 -4.016497 -11.519971 2.815119 29.807337 74.882380 31.500823 0.775298 -10.926288 -5.339642 0.275266 0.875413 0.132225
-122.961284 61.967435 19.707684 175.822877 -52.402672 -0.597420 5.184983 26.330797 1.602540 0.726664 4.409984 0.238186 1.165325 7.003097 0.405426 3.848853 21.334060 1.791664 6.641042 19.767925 3.112497 11.158457 0.768116 3.706847 3.973029 8.664358 6.254761 -2.710320 -11.527107 -14.080240 -132.531497 -67.080787 161.237346 24.792066 19.415284 26.605680 -12.752404 4.326217 0.418759 -11.518774 -34.907353 36.397975 -49.831558 -64.108931 65.075457 -3.045445 -3.335196 -13.897450 4.174657 -14.326459 -5.675419 -2.621647 57.972539 -6.890048 0.084216 -5.609560 10.090712 0.348652 -0.735044 0.152918 -4.011949 -11.522631 2.810071 29.811166 74.863528 31.501346 0.787730 -10.911851 -5.339535 0.263085 0.872229 0.128218
-122.962384 61.970629 19.715950 175.795564 -52.375853 -0.586230 5.211853 26.343874 1.599852 0.730148 4.416818 0.236647 1.170812 7.013182 0.403151 3.871618 21.397839 1.763522 6.664561 19.645711 3.164986 11.282854 0.662260 3.767317 3.908092 8.659915 6.217985 -2.733185 -11.551097 -14.025252 -132.548673 -67.116497 161.251370 24.798646 19.421378 26.617376 -12.758467 4.298027 0.464656 -11.528290 -34.915848 36.566357 -49.309246 -63.529496 64.756583 -3.176451 -3.434649 -13.771360 4.179172 -14.354058 -5.670440 -2.597852 57.960880 -6.864564 0.079718 -5.607888 10.080166 0.353652 -0.733754 0.154741 -4.003654 -11.544084 2.814249 29.827293 74.849524 31.514698 0.802018 -10.907432 -5.337944 0.247639 0.872719 0.118351
